<mxfile host="app.diagrams.net" agent="Mozilla/5.0 (Windows NT 10.0; Win64; x64) AppleWebKit/537.36 (KHTML, like Gecko) Chrome/128.0.0.0 Safari/537.36 Edg/128.0.0.0" version="24.7.12">
  <diagram name="第 1 页" id="ZOT4D7fJgdr9li8hzxwN">
    <mxGraphModel dx="1173" dy="736" grid="1" gridSize="10" guides="1" tooltips="1" connect="1" arrows="1" fold="1" page="1" pageScale="1" pageWidth="827" pageHeight="1169" math="0" shadow="0">
      <root>
        <mxCell id="0" />
        <mxCell id="1" parent="0" />
        <mxCell id="-51qsezFrlqQehsZUy-t-1" style="edgeStyle=orthogonalEdgeStyle;rounded=0;orthogonalLoop=1;jettySize=auto;html=1;entryX=0;entryY=0.25;entryDx=0;entryDy=0;exitX=1;exitY=0.25;exitDx=0;exitDy=0;" edge="1" parent="1" source="-51qsezFrlqQehsZUy-t-2">
          <mxGeometry relative="1" as="geometry">
            <mxPoint x="440" y="439" as="sourcePoint" />
            <mxPoint x="610" y="428" as="targetPoint" />
          </mxGeometry>
        </mxCell>
        <mxCell id="-51qsezFrlqQehsZUy-t-2" value="客户端" style="whiteSpace=wrap;html=1;fillColor=#0050ef;fontColor=#ffffff;strokeColor=#001DBC;" vertex="1" parent="1">
          <mxGeometry x="70" y="413" width="120" height="60" as="geometry" />
        </mxCell>
        <mxCell id="-51qsezFrlqQehsZUy-t-3" style="edgeStyle=orthogonalEdgeStyle;rounded=0;orthogonalLoop=1;jettySize=auto;html=1;exitX=0;exitY=0.75;exitDx=0;exitDy=0;entryX=1;entryY=0.75;entryDx=0;entryDy=0;" edge="1" parent="1" target="-51qsezFrlqQehsZUy-t-2">
          <mxGeometry relative="1" as="geometry">
            <mxPoint x="610" y="458" as="sourcePoint" />
          </mxGeometry>
        </mxCell>
        <mxCell id="-51qsezFrlqQehsZUy-t-4" value="登录请求" style="text;html=1;align=center;verticalAlign=middle;resizable=0;points=[];autosize=1;strokeColor=none;fillColor=none;" vertex="1" parent="1">
          <mxGeometry x="350" y="403" width="70" height="30" as="geometry" />
        </mxCell>
        <mxCell id="-51qsezFrlqQehsZUy-t-5" value="set-cookie :&amp;nbsp; SESSION_ID=0x232321312" style="text;strokeColor=none;align=center;fillColor=none;html=1;verticalAlign=middle;whiteSpace=wrap;rounded=0;" vertex="1" parent="1">
          <mxGeometry x="303" y="462" width="237" height="40" as="geometry" />
        </mxCell>
        <mxCell id="-51qsezFrlqQehsZUy-t-6" value="Cookie:SESSION_ID&lt;div&gt;=0x232321312&lt;/div&gt;" style="whiteSpace=wrap;html=1;" vertex="1" parent="1">
          <mxGeometry x="70" y="473" width="120" height="40" as="geometry" />
        </mxCell>
        <mxCell id="-51qsezFrlqQehsZUy-t-7" style="edgeStyle=orthogonalEdgeStyle;rounded=0;orthogonalLoop=1;jettySize=auto;html=1;entryX=0;entryY=0.25;entryDx=0;entryDy=0;exitX=1;exitY=0.25;exitDx=0;exitDy=0;" edge="1" parent="1" source="-51qsezFrlqQehsZUy-t-8">
          <mxGeometry relative="1" as="geometry">
            <mxPoint x="440" y="186" as="sourcePoint" />
            <mxPoint x="610" y="175" as="targetPoint" />
          </mxGeometry>
        </mxCell>
        <mxCell id="-51qsezFrlqQehsZUy-t-8" value="客户端" style="whiteSpace=wrap;html=1;fillColor=#0050ef;fontColor=#ffffff;strokeColor=#001DBC;" vertex="1" parent="1">
          <mxGeometry x="70" y="160" width="120" height="60" as="geometry" />
        </mxCell>
        <mxCell id="-51qsezFrlqQehsZUy-t-9" style="edgeStyle=orthogonalEdgeStyle;rounded=0;orthogonalLoop=1;jettySize=auto;html=1;exitX=0;exitY=0.75;exitDx=0;exitDy=0;entryX=1;entryY=0.75;entryDx=0;entryDy=0;" edge="1" parent="1" target="-51qsezFrlqQehsZUy-t-8">
          <mxGeometry relative="1" as="geometry">
            <mxPoint x="610" y="205" as="sourcePoint" />
          </mxGeometry>
        </mxCell>
        <mxCell id="-51qsezFrlqQehsZUy-t-10" value="登录请求" style="text;html=1;align=center;verticalAlign=middle;resizable=0;points=[];autosize=1;strokeColor=none;fillColor=none;" vertex="1" parent="1">
          <mxGeometry x="350" y="150" width="70" height="30" as="geometry" />
        </mxCell>
        <mxCell id="-51qsezFrlqQehsZUy-t-11" value="set-cookie : id= 123 &amp;amp; name=123" style="text;strokeColor=none;align=center;fillColor=none;html=1;verticalAlign=middle;whiteSpace=wrap;rounded=0;" vertex="1" parent="1">
          <mxGeometry x="303" y="209" width="156" height="40" as="geometry" />
        </mxCell>
        <mxCell id="-51qsezFrlqQehsZUy-t-12" value="Cookie:id=123&lt;div&gt;name=123&lt;/div&gt;" style="whiteSpace=wrap;html=1;fillColor=#1ba1e2;fontColor=#ffffff;strokeColor=#006EAF;" vertex="1" parent="1">
          <mxGeometry x="70" y="220" width="120" height="29" as="geometry" />
        </mxCell>
        <mxCell id="-51qsezFrlqQehsZUy-t-13" value="普通Cookie机制(有服务器自动完成)" style="text;html=1;align=center;verticalAlign=middle;resizable=0;points=[];autosize=1;strokeColor=#B20000;fillColor=#e51400;fontColor=#ffffff;" vertex="1" parent="1">
          <mxGeometry x="284" y="75" width="210" height="30" as="geometry" />
        </mxCell>
        <mxCell id="-51qsezFrlqQehsZUy-t-14" value="Session全流程" style="text;html=1;align=center;verticalAlign=middle;whiteSpace=wrap;rounded=0;fillColor=#6a00ff;fontColor=#ffffff;strokeColor=#3700CC;" vertex="1" parent="1">
          <mxGeometry x="320.5" y="330" width="121" height="30" as="geometry" />
        </mxCell>
        <mxCell id="-51qsezFrlqQehsZUy-t-15" style="edgeStyle=orthogonalEdgeStyle;rounded=0;orthogonalLoop=1;jettySize=auto;html=1;entryX=0;entryY=0.25;entryDx=0;entryDy=0;exitX=1;exitY=0.25;exitDx=0;exitDy=0;" edge="1" parent="1" source="-51qsezFrlqQehsZUy-t-16">
          <mxGeometry relative="1" as="geometry">
            <mxPoint x="437.5" y="704" as="sourcePoint" />
            <mxPoint x="608" y="701" as="targetPoint" />
          </mxGeometry>
        </mxCell>
        <mxCell id="-51qsezFrlqQehsZUy-t-16" value="客户端" style="whiteSpace=wrap;html=1;fillColor=#0050ef;fontColor=#ffffff;strokeColor=#001DBC;" vertex="1" parent="1">
          <mxGeometry x="67.5" y="678" width="120" height="92" as="geometry" />
        </mxCell>
        <mxCell id="-51qsezFrlqQehsZUy-t-17" style="edgeStyle=orthogonalEdgeStyle;rounded=0;orthogonalLoop=1;jettySize=auto;html=1;exitX=0;exitY=0.75;exitDx=0;exitDy=0;entryX=1;entryY=0.75;entryDx=0;entryDy=0;" edge="1" parent="1" target="-51qsezFrlqQehsZUy-t-16">
          <mxGeometry relative="1" as="geometry">
            <mxPoint x="608" y="747" as="sourcePoint" />
          </mxGeometry>
        </mxCell>
        <mxCell id="-51qsezFrlqQehsZUy-t-18" value="1.登录请求" style="text;html=1;align=center;verticalAlign=middle;resizable=0;points=[];autosize=1;strokeColor=none;fillColor=none;" vertex="1" parent="1">
          <mxGeometry x="341" y="678" width="80" height="30" as="geometry" />
        </mxCell>
        <mxCell id="-51qsezFrlqQehsZUy-t-19" value="2.Token:esqwe123234" style="text;strokeColor=none;align=center;fillColor=none;html=1;verticalAlign=middle;whiteSpace=wrap;rounded=0;" vertex="1" parent="1">
          <mxGeometry x="279" y="720" width="237" height="40" as="geometry" />
        </mxCell>
        <mxCell id="-51qsezFrlqQehsZUy-t-20" value="利用token" style="text;html=1;align=center;verticalAlign=middle;whiteSpace=wrap;rounded=0;fillColor=#a20025;fontColor=#ffffff;strokeColor=#6F0000;" vertex="1" parent="1">
          <mxGeometry x="318" y="595" width="121" height="30" as="geometry" />
        </mxCell>
        <mxCell id="-51qsezFrlqQehsZUy-t-21" value="JWT规范:&amp;nbsp; &amp;nbsp; Token: (加密算法)&amp;nbsp; +&amp;nbsp; (认证信息 id =112 name =1123) + (签名)" style="text;html=1;align=left;verticalAlign=middle;whiteSpace=wrap;rounded=0;fillColor=#1ba1e2;fontColor=#ffffff;strokeColor=#006EAF;" vertex="1" parent="1">
          <mxGeometry x="170" y="850" width="471.5" height="30" as="geometry" />
        </mxCell>
        <mxCell id="-51qsezFrlqQehsZUy-t-22" value="用户在前端手动将token存储在SessionStorage中&lt;div&gt;&lt;br&gt;&lt;/div&gt;" style="whiteSpace=wrap;html=1;fillColor=#0050ef;fontColor=#ffffff;strokeColor=#001DBC;" vertex="1" parent="1">
          <mxGeometry x="67.5" y="750" width="122.5" height="60" as="geometry" />
        </mxCell>
        <mxCell id="-51qsezFrlqQehsZUy-t-23" style="edgeStyle=orthogonalEdgeStyle;rounded=0;orthogonalLoop=1;jettySize=auto;html=1;exitX=1;exitY=0.75;exitDx=0;exitDy=0;entryX=-0.016;entryY=0.826;entryDx=0;entryDy=0;entryPerimeter=0;" edge="1" parent="1" source="-51qsezFrlqQehsZUy-t-22">
          <mxGeometry relative="1" as="geometry">
            <mxPoint x="606" y="797" as="targetPoint" />
            <Array as="points">
              <mxPoint x="190" y="800" />
              <mxPoint x="399" y="800" />
              <mxPoint x="399" y="798" />
            </Array>
          </mxGeometry>
        </mxCell>
        <mxCell id="-51qsezFrlqQehsZUy-t-24" value="3. authorization:token" style="text;html=1;align=center;verticalAlign=middle;whiteSpace=wrap;rounded=0;" vertex="1" parent="1">
          <mxGeometry x="315" y="770" width="140" height="30" as="geometry" />
        </mxCell>
        <mxCell id="-51qsezFrlqQehsZUy-t-25" value="服务端" style="whiteSpace=wrap;html=1;fillColor=#a20025;fontColor=#ffffff;strokeColor=#6F0000;" vertex="1" parent="1">
          <mxGeometry x="610" y="160" width="130" height="90" as="geometry" />
        </mxCell>
        <mxCell id="-51qsezFrlqQehsZUy-t-26" value="服务端" style="whiteSpace=wrap;html=1;fillColor=#a20025;fontColor=#ffffff;strokeColor=#6F0000;" vertex="1" parent="1">
          <mxGeometry x="610" y="403" width="130" height="90" as="geometry" />
        </mxCell>
        <mxCell id="-51qsezFrlqQehsZUy-t-27" value="服务端" style="whiteSpace=wrap;html=1;fillColor=#a20025;fontColor=#ffffff;strokeColor=#6F0000;" vertex="1" parent="1">
          <mxGeometry x="610" y="670" width="130" height="154" as="geometry" />
        </mxCell>
        <mxCell id="-51qsezFrlqQehsZUy-t-28" value="id =111&lt;div&gt;name=111&lt;/div&gt;&lt;div&gt;password=111&lt;/div&gt;" style="whiteSpace=wrap;html=1;fillColor=#d80073;fontColor=#ffffff;strokeColor=#A50040;" vertex="1" parent="1">
          <mxGeometry x="610" y="250" width="125" height="60" as="geometry" />
        </mxCell>
        <mxCell id="-51qsezFrlqQehsZUy-t-29" value="key =0x2323231412&lt;div&gt;id=111&lt;/div&gt;&lt;div&gt;name=111&lt;/div&gt;&lt;div&gt;password=11&lt;/div&gt;" style="whiteSpace=wrap;html=1;fillColor=#d80073;fontColor=#ffffff;strokeColor=#A50040;" vertex="1" parent="1">
          <mxGeometry x="612.5" y="493" width="120" height="60" as="geometry" />
        </mxCell>
      </root>
    </mxGraphModel>
  </diagram>
</mxfile>
